Coordinates
version=1
nRows=11
nColumns=26
inDegrees=yes

Units are S.I. units (second, meters, Newtons, ...)
Angles are in degrees.

endheader
time	pelvis_tilt	pelvis_list	pelvis_rotation	pelvis_tx	pelvis_ty	pelvis_tz	hip_flexion_r	hip_adduction_r	hip_rotation_r	knee_angle_r	knee_angle_r_beta	ankle_angle_r	subtalar_angle_r	mtp_angle_r	hip_flexion_l	hip_adduction_l	hip_rotation_l	knee_angle_l	knee_angle_l_beta	ankle_angle_l	subtalar_angle_l	mtp_angle_l	lumbar_extension	lumbar_bending	lumbar_rotation
      0.80000000	      9.58686983	     -3.06491741	      6.81174985	      0.84011646	      1.01108823	      0.13922075	     -3.12131326	      5.87056365	     -7.97162541	     10.88600923	     10.88600923	      3.46106812	      0.00000000	      0.00000000	     10.85529321	    -12.31528981	     -4.60110464	     65.53679384	     65.53679384	      4.84700986	      0.00000000	      0.00000000	    -20.77573148	      5.01108249	      4.26743186
      0.80833333	      9.45969207	     -2.88744513	      6.78856039	      0.84755103	      1.01174832	      0.13953182	     -3.72618026	      5.78284431	     -7.89494647	     10.45599924	     10.45599924	      3.58922129	      0.00000000	      0.00000000	     11.82008816	    -12.08386253	     -5.01462289	     64.83364036	     64.83364036	      4.88721845	      0.00000000	      0.00000000	    -20.69692998	      4.76826618	      4.28889087
      0.81666667	      9.28596776	     -2.68496772	      6.74640090	      0.85490524	      1.01229638	      0.13969594	     -4.23284083	      5.63391386	     -7.82708686	     10.10694921	     10.10694921	      3.75237708	      0.00000000	      0.00000000	     12.80591800	    -11.77207117	     -5.36096572	     64.01013041	     64.01013041	      5.06238284	      0.00000000	      0.00000000	    -20.58219676	      4.50725710	      4.34458217
      0.82500000	      9.11391081	     -2.49911451	      6.68648747	      0.86222618	      1.01276040	      0.13973445	     -4.72322525	      5.47946329	     -7.69209509	      9.80389103	      9.80389103	      3.94415772	      0.00000000	      0.00000000	     13.71970325	    -11.45834664	     -5.80446510	     62.93075789	     62.93075789	      5.24658149	      0.00000000	      0.00000000	    -20.48138641	      4.28115443	      4.41592489
      0.83333333	      8.95620361	     -2.29028178	      6.62803471	      0.86959130	      1.01309530	      0.13966551	     -5.24112727	      5.30726083	     -7.60612533	      9.47365030	      9.47365030	      4.15225389	      0.00000000	      0.00000000	     14.54993619	    -11.10833853	     -6.26139574	     61.69466818	     61.69466818	      5.31215252	      0.00000000	      0.00000000	    -20.39137737	      4.04452450	      4.46514089
      0.84166667	      8.78093583	     -2.12784259	      6.60706043	      0.87690087	      1.01323504	      0.13941411	     -5.73384782	      5.17378481	     -7.50967269	      9.14327584	      9.14327584	      4.35952399	      0.00000000	      0.00000000	     15.43976509	    -10.72908362	     -6.51783100	     60.38845260	     60.38845260	      5.34448042	      0.00000000	      0.00000000	    -20.28153953	      3.88260360	      4.49926555
      0.85000000	      8.62893581	     -1.99480331	      6.54368230	      0.88425204	      1.01330412	      0.13908439	     -6.25067408	      5.06204800	     -7.32715858	      8.80804827	      8.80804827	      4.58504089	      0.00000000	      0.00000000	     16.26688103	    -10.33591096	     -6.76263754	     58.94792508	     58.94792508	      5.25333088	      0.00000000	      0.00000000	    -20.19689239	      3.76193163	      4.58445321
      0.85833333	      8.49624826	     -1.89907365	      6.50491429	      0.89164081	      1.01330059	      0.13878649	     -6.76149303	      4.99048105	     -7.21740404	      8.50109701	      8.50109701	      4.77754174	      0.00000000	      0.00000000	     16.98087949	     -9.98911337	     -7.02016044	     57.31149009	     57.31149009	      5.15439938	      0.00000000	      0.00000000	    -20.13049597	      3.68280379	      4.64132352
      0.86666667	      8.40853893	     -1.82612037	      6.42743743	      0.89911271	      1.01327796	      0.13840721	     -7.34137402	      4.94093449	     -7.10340152	      8.15590804	      8.15590804	      5.00724261	      0.00000000	      0.00000000	     17.54666126	     -9.67153402	     -7.28299403	     55.48872426	     55.48872426	      5.01478522	      0.00000000	      0.00000000	    -20.10839099	      3.63704803	      4.74250902
      0.87500000	      8.40009802	     -1.76082350	      6.30852095	      0.90662655	      1.01315564	      0.13796979	     -8.02299710	      4.90603964	     -6.92321059	      7.80752219	      7.80752219	      5.22757764	      0.00000000	      0.00000000	     17.95348198	     -9.45153805	     -7.77184324	     53.55026040	     53.55026040	      4.83925006	      0.00000000	      0.00000000	    -20.16864326	      3.60153184	      4.87044829
      0.88333333	      8.35793147	     -1.65784521	      6.17062370	      0.91417819	      1.01313146	      0.13772041	     -8.66908124	      4.82807581	     -6.69656430	      7.45931695	      7.45931695	      5.41491178	      0.00000000	      0.00000000	     18.33302548	     -9.05672706	     -7.86828665	     51.44508014	     51.44508014	      4.57637834	      0.00000000	      0.00000000	    -20.20896070	      3.50306836	      4.99099062
